<mxfile host="Electron" modified="2023-10-12T20:46:05.204Z" agent="Mozilla/5.0 (X11; Linux x86_64) AppleWebKit/537.36 (KHTML, like Gecko) draw.io/22.0.2 Chrome/114.0.5735.289 Electron/25.8.4 Safari/537.36" etag="_DSy914OUwLRy0pw4oLn" version="22.0.2" type="device" pages="2">
  <diagram name="Files" id="2c0d36ab-eaac-3732-788b-9136903baeff">
    <mxGraphModel dx="3440.5" dy="1029" grid="1" gridSize="10" guides="1" tooltips="1" connect="1" arrows="1" fold="1" page="1" pageScale="1.5" pageWidth="1169" pageHeight="827" background="none" math="0" shadow="0">
      <root>
        <mxCell id="0" />
        <mxCell id="1" parent="0" />
        <mxCell id="2" value="Plataforma de evaluación&#xa;para recurso renovables" style="rounded=1;fillColor=#666666;gradientColor=none;strokeColor=none;fontColor=#FFFFFF;fontStyle=1;fontFamily=Tahoma;fontSize=14" parent="1" vertex="1">
          <mxGeometry x="757" y="185.5" width="190" height="80" as="geometry" />
        </mxCell>
        <mxCell id="rlsw4G8Oqg-HQcDgr6ex-145" value="" style="edgeStyle=orthogonalEdgeStyle;rounded=0;orthogonalLoop=1;jettySize=auto;html=1;strokeWidth=2;endArrow=classic;endFill=1;" parent="1" source="4" target="rlsw4G8Oqg-HQcDgr6ex-144" edge="1">
          <mxGeometry relative="1" as="geometry" />
        </mxCell>
        <mxCell id="4" value="Evaluación de recursos" style="rounded=1;fillColor=#808080;gradientColor=none;strokeColor=none;fontColor=#FFFFFF;fontStyle=1;fontFamily=Tahoma;fontSize=14" parent="1" vertex="1">
          <mxGeometry x="1102" y="336" width="190" height="54" as="geometry" />
        </mxCell>
        <mxCell id="9" value="" style="edgeStyle=elbowEdgeStyle;elbow=vertical;strokeWidth=2;rounded=0" parent="1" source="2" target="4" edge="1">
          <mxGeometry x="337" y="215.5" width="100" height="100" as="geometry">
            <mxPoint x="337" y="315.5" as="sourcePoint" />
            <mxPoint x="437" y="215.5" as="targetPoint" />
          </mxGeometry>
        </mxCell>
        <mxCell id="12" value="Proyecto Django" style="rounded=1;fillColor=#808080;gradientColor=none;strokeColor=none;fontColor=#FFFFFF;fontStyle=1;fontFamily=Tahoma;fontSize=14" parent="1" vertex="1">
          <mxGeometry x="379.9999999999999" y="336" width="190" height="80" as="geometry" />
        </mxCell>
        <mxCell id="25" value="Proyecto/" style="rounded=1;fillColor=#999999;gradientColor=none;strokeColor=none;fontColor=#FFFFFF;fontStyle=1;fontFamily=Tahoma;fontSize=14" parent="1" vertex="1">
          <mxGeometry x="160" y="455.5" width="130" height="60" as="geometry" />
        </mxCell>
        <mxCell id="26" value="__init__.py" style="rounded=1;fillColor=#60a917;gradientColor=none;strokeColor=#2D7600;fontColor=#ffffff;fontStyle=1;fontFamily=Tahoma;fontSize=14;opacity=40;" parent="1" vertex="1">
          <mxGeometry x="160" y="545.5" width="130" height="44.5" as="geometry" />
        </mxCell>
        <mxCell id="27" value="settings.py" style="rounded=1;fillColor=#e3c800;gradientColor=none;strokeColor=#B09500;fontColor=#000000;fontStyle=1;fontFamily=Tahoma;fontSize=14;opacity=40;" parent="1" vertex="1">
          <mxGeometry x="160" y="602" width="130" height="44.5" as="geometry" />
        </mxCell>
        <mxCell id="28" value="urls.py" style="rounded=1;fillColor=#e3c800;gradientColor=none;strokeColor=#B09500;fontColor=#000000;fontStyle=1;fontFamily=Tahoma;fontSize=14;opacity=40;" parent="1" vertex="1">
          <mxGeometry x="160" y="658" width="130" height="44.5" as="geometry" />
        </mxCell>
        <mxCell id="29" value="manage.py" style="rounded=1;fillColor=#60a917;gradientColor=none;strokeColor=#2D7600;fontColor=#ffffff;fontStyle=1;fontFamily=Tahoma;fontSize=14;opacity=40;" parent="1" vertex="1">
          <mxGeometry x="335" y="455.5" width="130" height="44.5" as="geometry" />
        </mxCell>
        <mxCell id="33" value="apps/" style="rounded=1;fillColor=#e3c800;gradientColor=none;strokeColor=#B09500;fontColor=#000000;fontStyle=1;fontFamily=Tahoma;fontSize=14;opacity=40;" parent="1" vertex="1">
          <mxGeometry x="510" y="455.5" width="130" height="60" as="geometry" />
        </mxCell>
        <mxCell id="34" value="Login/" style="rounded=1;fillColor=#e3c800;gradientColor=none;strokeColor=#B09500;fontColor=#000000;fontStyle=1;fontFamily=Tahoma;fontSize=14;opacity=40;" parent="1" vertex="1">
          <mxGeometry x="510" y="545.5" width="130" height="60" as="geometry" />
        </mxCell>
        <mxCell id="35" value="Evaluación/" style="rounded=1;fillColor=#e3c800;gradientColor=none;strokeColor=#B09500;fontColor=#000000;fontStyle=1;fontFamily=Tahoma;fontSize=14;opacity=40;" parent="1" vertex="1">
          <mxGeometry x="510" y="635.5" width="130" height="60" as="geometry" />
        </mxCell>
        <mxCell id="36" value="Contacto/" style="rounded=1;fillColor=#e3c800;gradientColor=none;strokeColor=#B09500;fontColor=#000000;fontStyle=1;fontFamily=Tahoma;fontSize=14;opacity=40;" parent="1" vertex="1">
          <mxGeometry x="510" y="725.5" width="130" height="60" as="geometry" />
        </mxCell>
        <mxCell id="44" value="Resource" style="rounded=1;fillColor=#999999;gradientColor=none;strokeColor=none;fontColor=#FFFFFF;fontStyle=1;fontFamily=Tahoma;fontSize=14" parent="1" vertex="1">
          <mxGeometry x="882" y="538.5" width="130" height="60" as="geometry" />
        </mxCell>
        <mxCell id="45" value="__init__.py" style="rounded=1;fillColor=#60a917;gradientColor=none;strokeColor=#2D7600;fontColor=#ffffff;fontStyle=1;fontFamily=Tahoma;fontSize=14;opacity=40;" parent="1" vertex="1">
          <mxGeometry x="882" y="612.5" width="130" height="44.5" as="geometry" />
        </mxCell>
        <mxCell id="46" value="resource" style="rounded=1;fillColor=#60a917;gradientColor=none;strokeColor=#2D7600;fontColor=#ffffff;fontStyle=1;fontFamily=Tahoma;fontSize=14;opacity=40;" parent="1" vertex="1">
          <mxGeometry x="882" y="669" width="130" height="44" as="geometry" />
        </mxCell>
        <mxCell id="47" value="prefeasibility" style="rounded=1;fillColor=#60a917;gradientColor=none;strokeColor=#2D7600;fontColor=#ffffff;fontStyle=1;fontFamily=Tahoma;fontSize=14;opacity=40;" parent="1" vertex="1">
          <mxGeometry x="882" y="725" width="130" height="44.5" as="geometry" />
        </mxCell>
        <mxCell id="48" value="Indicador" style="rounded=1;fillColor=#999999;gradientColor=none;strokeColor=none;fontColor=#FFFFFF;fontStyle=1;fontFamily=Tahoma;fontSize=14" parent="1" vertex="1">
          <mxGeometry x="1057" y="538.5" width="130" height="60" as="geometry" />
        </mxCell>
        <mxCell id="59" value="" style="edgeStyle=elbowEdgeStyle;elbow=vertical;strokeWidth=2;rounded=0" parent="1" source="2" target="12" edge="1">
          <mxGeometry x="347" y="225.5" width="100" height="100" as="geometry">
            <mxPoint x="861.9999999999999" y="275.5" as="sourcePoint" />
            <mxPoint x="1466.9999999999998" y="345.5" as="targetPoint" />
          </mxGeometry>
        </mxCell>
        <mxCell id="70" value="" style="edgeStyle=elbowEdgeStyle;elbow=horizontal;strokeWidth=2;rounded=0" parent="1" source="25" target="26" edge="1">
          <mxGeometry x="-280" y="135.5" width="100" height="100" as="geometry">
            <mxPoint x="-280" y="235.5" as="sourcePoint" />
            <mxPoint x="-180" y="135.5" as="targetPoint" />
            <Array as="points">
              <mxPoint x="140" y="535.5" />
            </Array>
          </mxGeometry>
        </mxCell>
        <mxCell id="71" value="" style="edgeStyle=elbowEdgeStyle;elbow=horizontal;strokeWidth=2;rounded=0" parent="1" source="25" target="27" edge="1">
          <mxGeometry x="-280" y="135.5" width="100" height="100" as="geometry">
            <mxPoint x="-280" y="235.5" as="sourcePoint" />
            <mxPoint x="-180" y="135.5" as="targetPoint" />
            <Array as="points">
              <mxPoint x="140" y="575.5" />
            </Array>
          </mxGeometry>
        </mxCell>
        <mxCell id="72" value="" style="edgeStyle=elbowEdgeStyle;elbow=horizontal;strokeWidth=2;rounded=0" parent="1" source="25" target="28" edge="1">
          <mxGeometry x="-280" y="135.5" width="100" height="100" as="geometry">
            <mxPoint x="-280" y="235.5" as="sourcePoint" />
            <mxPoint x="-180" y="135.5" as="targetPoint" />
            <Array as="points">
              <mxPoint x="140" y="615.5" />
            </Array>
          </mxGeometry>
        </mxCell>
        <mxCell id="76" value="" style="edgeStyle=elbowEdgeStyle;elbow=horizontal;strokeWidth=2;rounded=0" parent="1" source="33" target="34" edge="1">
          <mxGeometry x="-280" y="135.5" width="100" height="100" as="geometry">
            <mxPoint x="-280" y="235.5" as="sourcePoint" />
            <mxPoint x="-180" y="135.5" as="targetPoint" />
            <Array as="points">
              <mxPoint x="490" y="535.5" />
            </Array>
          </mxGeometry>
        </mxCell>
        <mxCell id="77" value="" style="edgeStyle=elbowEdgeStyle;elbow=horizontal;strokeWidth=2;rounded=0" parent="1" source="33" target="35" edge="1">
          <mxGeometry x="-280" y="135.5" width="100" height="100" as="geometry">
            <mxPoint x="-280" y="235.5" as="sourcePoint" />
            <mxPoint x="-180" y="135.5" as="targetPoint" />
            <Array as="points">
              <mxPoint x="490" y="575.5" />
            </Array>
          </mxGeometry>
        </mxCell>
        <mxCell id="78" value="" style="edgeStyle=elbowEdgeStyle;elbow=horizontal;strokeWidth=2;rounded=0" parent="1" source="33" target="36" edge="1">
          <mxGeometry x="-280" y="135.5" width="100" height="100" as="geometry">
            <mxPoint x="-280" y="235.5" as="sourcePoint" />
            <mxPoint x="-180" y="135.5" as="targetPoint" />
            <Array as="points">
              <mxPoint x="490" y="625.5" />
            </Array>
          </mxGeometry>
        </mxCell>
        <mxCell id="84" value="" style="edgeStyle=elbowEdgeStyle;elbow=horizontal;strokeWidth=2;rounded=0;entryX=0;entryY=0.5;entryDx=0;entryDy=0;" parent="1" source="44" target="45" edge="1">
          <mxGeometry x="-358" y="218.5" width="100" height="100" as="geometry">
            <mxPoint x="-358" y="318.5" as="sourcePoint" />
            <mxPoint x="-258" y="218.5" as="targetPoint" />
            <Array as="points">
              <mxPoint x="862" y="628.5" />
            </Array>
          </mxGeometry>
        </mxCell>
        <mxCell id="85" value="" style="edgeStyle=elbowEdgeStyle;elbow=horizontal;strokeWidth=2;rounded=0" parent="1" source="44" target="46" edge="1">
          <mxGeometry x="-358" y="218.5" width="100" height="100" as="geometry">
            <mxPoint x="-358" y="318.5" as="sourcePoint" />
            <mxPoint x="-258" y="218.5" as="targetPoint" />
            <Array as="points">
              <mxPoint x="862" y="658.5" />
            </Array>
          </mxGeometry>
        </mxCell>
        <mxCell id="86" value="" style="edgeStyle=elbowEdgeStyle;elbow=horizontal;strokeWidth=2;rounded=0" parent="1" source="44" target="47" edge="1">
          <mxGeometry x="-358" y="218.5" width="100" height="100" as="geometry">
            <mxPoint x="-358" y="318.5" as="sourcePoint" />
            <mxPoint x="-258" y="218.5" as="targetPoint" />
            <Array as="points">
              <mxPoint x="862" y="708.5" />
            </Array>
          </mxGeometry>
        </mxCell>
        <mxCell id="100" value="" style="edgeStyle=elbowEdgeStyle;elbow=vertical;strokeWidth=2;rounded=0;exitX=0.5;exitY=1;exitDx=0;exitDy=0;" parent="1" source="12" target="25" edge="1">
          <mxGeometry x="-165" y="135.5" width="100" height="100" as="geometry">
            <mxPoint x="511.0000000000002" y="416" as="sourcePoint" />
            <mxPoint x="-65" y="135.5" as="targetPoint" />
          </mxGeometry>
        </mxCell>
        <mxCell id="101" value="" style="edgeStyle=elbowEdgeStyle;elbow=vertical;strokeWidth=2;rounded=0;exitX=0.5;exitY=1;exitDx=0;exitDy=0;" parent="1" source="12" target="29" edge="1">
          <mxGeometry x="-165" y="135.5" width="100" height="100" as="geometry">
            <mxPoint x="511.0000000000002" y="416" as="sourcePoint" />
            <mxPoint x="-65" y="135.5" as="targetPoint" />
          </mxGeometry>
        </mxCell>
        <mxCell id="102" value="" style="edgeStyle=elbowEdgeStyle;elbow=vertical;strokeWidth=2;rounded=0;exitX=0.5;exitY=1;exitDx=0;exitDy=0;" parent="1" source="12" target="33" edge="1">
          <mxGeometry x="-165" y="135.5" width="100" height="100" as="geometry">
            <mxPoint x="511.0000000000002" y="416" as="sourcePoint" />
            <mxPoint x="-65" y="135.5" as="targetPoint" />
          </mxGeometry>
        </mxCell>
        <mxCell id="104" value="" style="edgeStyle=elbowEdgeStyle;elbow=vertical;strokeWidth=2;rounded=0;exitX=0.5;exitY=1;exitDx=0;exitDy=0;" parent="1" source="rlsw4G8Oqg-HQcDgr6ex-144" target="48" edge="1">
          <mxGeometry x="-283" y="136" width="100" height="100" as="geometry">
            <mxPoint x="-283" y="236" as="sourcePoint" />
            <mxPoint x="-183" y="136" as="targetPoint" />
          </mxGeometry>
        </mxCell>
        <mxCell id="105" value="" style="edgeStyle=elbowEdgeStyle;elbow=vertical;strokeWidth=2;rounded=0;exitX=0.5;exitY=1;exitDx=0;exitDy=0;" parent="1" source="rlsw4G8Oqg-HQcDgr6ex-144" target="44" edge="1">
          <mxGeometry x="-283" y="136" width="100" height="100" as="geometry">
            <mxPoint x="-283" y="236" as="sourcePoint" />
            <mxPoint x="-183" y="136" as="targetPoint" />
          </mxGeometry>
        </mxCell>
        <mxCell id="106" value="" style="edgeStyle=elbowEdgeStyle;elbow=vertical;strokeWidth=2;rounded=0;entryX=0.5;entryY=0;entryDx=0;entryDy=0;" parent="1" source="rlsw4G8Oqg-HQcDgr6ex-144" target="rlsw4G8Oqg-HQcDgr6ex-161" edge="1">
          <mxGeometry x="-283" y="136" width="100" height="100" as="geometry">
            <mxPoint x="-283" y="236" as="sourcePoint" />
            <mxPoint x="1372" y="538.5" as="targetPoint" />
          </mxGeometry>
        </mxCell>
        <mxCell id="mqS4Ji9EStulKP7vH85O-123" value="Capa - Distribución de archivos" style="rounded=1;fontStyle=1;fontFamily=Tahoma;fontSize=14;fillColor=#f5f5f5;fontColor=#333333;strokeColor=#666666;" parent="1" vertex="1">
          <mxGeometry x="140" y="125.5" width="1460" height="30" as="geometry" />
        </mxCell>
        <mxCell id="rlsw4G8Oqg-HQcDgr6ex-123" value="wsgi.py" style="rounded=1;fillColor=#60a917;gradientColor=none;strokeColor=#2D7600;fontColor=#ffffff;fontStyle=1;fontFamily=Tahoma;fontSize=14;opacity=40;" parent="1" vertex="1">
          <mxGeometry x="160" y="714" width="130" height="44.5" as="geometry" />
        </mxCell>
        <mxCell id="rlsw4G8Oqg-HQcDgr6ex-126" value="" style="edgeStyle=elbowEdgeStyle;elbow=horizontal;strokeWidth=2;rounded=0;exitX=0;exitY=0.5;exitDx=0;exitDy=0;entryX=0;entryY=0.5;entryDx=0;entryDy=0;" parent="1" target="rlsw4G8Oqg-HQcDgr6ex-123" edge="1">
          <mxGeometry x="-273" y="145.5" width="100" height="100" as="geometry">
            <mxPoint x="157" y="485.5" as="sourcePoint" />
            <mxPoint x="157" y="895.5" as="targetPoint" />
            <Array as="points">
              <mxPoint x="140" y="800" />
              <mxPoint x="147" y="625.5" />
            </Array>
          </mxGeometry>
        </mxCell>
        <mxCell id="rlsw4G8Oqg-HQcDgr6ex-133" value="" style="edgeStyle=elbowEdgeStyle;elbow=vertical;strokeWidth=2;rounded=0;exitX=0.5;exitY=1;exitDx=0;exitDy=0;endArrow=none;endFill=0;" parent="1" edge="1">
          <mxGeometry x="-145" y="159.5" width="100" height="100" as="geometry">
            <mxPoint x="474.9999999999999" y="417" as="sourcePoint" />
            <mxPoint x="676" y="454" as="targetPoint" />
          </mxGeometry>
        </mxCell>
        <mxCell id="rlsw4G8Oqg-HQcDgr6ex-143" value="" style="group" parent="1" vertex="1" connectable="0">
          <mxGeometry x="676" y="455.5" width="147" height="210.5" as="geometry" />
        </mxCell>
        <mxCell id="rlsw4G8Oqg-HQcDgr6ex-127" value="db.sqlite3" style="rounded=1;fillColor=#e3c800;gradientColor=none;strokeColor=#B09500;fontColor=#000000;fontStyle=1;fontFamily=Tahoma;fontSize=14;opacity=40;" parent="rlsw4G8Oqg-HQcDgr6ex-143" vertex="1">
          <mxGeometry x="17" y="150.5" width="130" height="60" as="geometry" />
        </mxCell>
        <mxCell id="rlsw4G8Oqg-HQcDgr6ex-136" style="edgeStyle=orthogonalEdgeStyle;rounded=0;orthogonalLoop=1;jettySize=auto;html=1;strokeWidth=2;" parent="rlsw4G8Oqg-HQcDgr6ex-143" target="rlsw4G8Oqg-HQcDgr6ex-135" edge="1">
          <mxGeometry relative="1" as="geometry">
            <mxPoint y="-5.5" as="sourcePoint" />
            <Array as="points">
              <mxPoint y="104.5" />
            </Array>
          </mxGeometry>
        </mxCell>
        <mxCell id="rlsw4G8Oqg-HQcDgr6ex-134" value="templates" style="rounded=1;fillColor=#e3c800;gradientColor=none;strokeColor=#B09500;fontColor=#000000;fontStyle=1;fontFamily=Tahoma;fontSize=14;opacity=40;" parent="rlsw4G8Oqg-HQcDgr6ex-143" vertex="1">
          <mxGeometry x="17" width="130" height="60" as="geometry" />
        </mxCell>
        <mxCell id="rlsw4G8Oqg-HQcDgr6ex-135" value="statics" style="rounded=1;fillColor=#e3c800;gradientColor=none;strokeColor=#B09500;fontColor=#000000;fontStyle=1;fontFamily=Tahoma;fontSize=14;opacity=40;" parent="rlsw4G8Oqg-HQcDgr6ex-143" vertex="1">
          <mxGeometry x="17" y="74.5" width="130" height="60" as="geometry" />
        </mxCell>
        <mxCell id="rlsw4G8Oqg-HQcDgr6ex-140" style="edgeStyle=orthogonalEdgeStyle;rounded=0;orthogonalLoop=1;jettySize=auto;html=1;strokeWidth=2;entryX=0.005;entryY=0.484;entryDx=0;entryDy=0;entryPerimeter=0;" parent="rlsw4G8Oqg-HQcDgr6ex-143" target="rlsw4G8Oqg-HQcDgr6ex-134" edge="1">
          <mxGeometry x="0.1382" y="13" relative="1" as="geometry">
            <mxPoint y="-15.5" as="sourcePoint" />
            <mxPoint x="13" y="34.5" as="targetPoint" />
            <Array as="points">
              <mxPoint y="29.5" />
            </Array>
            <mxPoint as="offset" />
          </mxGeometry>
        </mxCell>
        <mxCell id="rlsw4G8Oqg-HQcDgr6ex-142" style="edgeStyle=orthogonalEdgeStyle;rounded=0;orthogonalLoop=1;jettySize=auto;html=1;strokeWidth=2;" parent="rlsw4G8Oqg-HQcDgr6ex-143" edge="1">
          <mxGeometry relative="1" as="geometry">
            <mxPoint y="68.5" as="sourcePoint" />
            <mxPoint x="17" y="178.5" as="targetPoint" />
            <Array as="points">
              <mxPoint y="178.5" />
            </Array>
          </mxGeometry>
        </mxCell>
        <mxCell id="rlsw4G8Oqg-HQcDgr6ex-144" value="__init__.py" style="rounded=1;fillColor=#CCCCCC;gradientColor=none;strokeColor=none;fontColor=#FFFFFF;fontStyle=1;fontFamily=Tahoma;fontSize=14" parent="1" vertex="1">
          <mxGeometry x="1102" y="420" width="190" height="40" as="geometry" />
        </mxCell>
        <mxCell id="rlsw4G8Oqg-HQcDgr6ex-147" value="load" style="rounded=1;fillColor=#60a917;gradientColor=none;strokeColor=#2D7600;fontColor=#ffffff;fontStyle=1;fontFamily=Tahoma;fontSize=14;opacity=40;" parent="1" vertex="1">
          <mxGeometry x="882" y="781" width="130" height="44.5" as="geometry" />
        </mxCell>
        <mxCell id="rlsw4G8Oqg-HQcDgr6ex-148" value="" style="edgeStyle=elbowEdgeStyle;elbow=horizontal;strokeWidth=2;rounded=0;exitX=0;exitY=0.5;exitDx=0;exitDy=0;" parent="1" target="rlsw4G8Oqg-HQcDgr6ex-147" edge="1">
          <mxGeometry x="-351" y="228.5" width="100" height="100" as="geometry">
            <mxPoint x="879" y="568.5" as="sourcePoint" />
            <mxPoint x="879" y="920" as="targetPoint" />
            <Array as="points">
              <mxPoint x="862" y="860" />
              <mxPoint x="869" y="718.5" />
            </Array>
          </mxGeometry>
        </mxCell>
        <mxCell id="rlsw4G8Oqg-HQcDgr6ex-149" value="graph" style="rounded=1;fillColor=#60a917;gradientColor=none;strokeColor=#2D7600;fontColor=#ffffff;fontStyle=1;fontFamily=Tahoma;fontSize=14;verticalAlign=middle;opacity=40;" parent="1" vertex="1">
          <mxGeometry x="882" y="840" width="130" height="40" as="geometry" />
        </mxCell>
        <mxCell id="rlsw4G8Oqg-HQcDgr6ex-150" value="" style="edgeStyle=elbowEdgeStyle;elbow=horizontal;strokeWidth=2;rounded=0;" parent="1" source="44" target="rlsw4G8Oqg-HQcDgr6ex-149" edge="1">
          <mxGeometry x="-351" y="307.75" width="100" height="100" as="geometry">
            <mxPoint x="879" y="570" as="sourcePoint" />
            <mxPoint x="879" y="999.25" as="targetPoint" />
            <Array as="points">
              <mxPoint x="862" y="939.25" />
              <mxPoint x="869" y="797.75" />
            </Array>
          </mxGeometry>
        </mxCell>
        <mxCell id="rlsw4G8Oqg-HQcDgr6ex-151" value="__init__.py" style="rounded=1;fillColor=#60a917;gradientColor=none;strokeColor=#2D7600;fontColor=#ffffff;fontStyle=1;fontFamily=Tahoma;fontSize=14;opacity=40;" parent="1" vertex="1">
          <mxGeometry x="1057" y="613.5" width="130" height="44.5" as="geometry" />
        </mxCell>
        <mxCell id="rlsw4G8Oqg-HQcDgr6ex-152" value="indicator" style="rounded=1;fillColor=#60a917;gradientColor=none;strokeColor=#2D7600;fontColor=#ffffff;fontStyle=1;fontFamily=Tahoma;fontSize=14;opacity=40;" parent="1" vertex="1">
          <mxGeometry x="1057" y="670" width="130" height="44" as="geometry" />
        </mxCell>
        <mxCell id="rlsw4G8Oqg-HQcDgr6ex-154" value="" style="edgeStyle=elbowEdgeStyle;elbow=horizontal;strokeWidth=2;rounded=0;entryX=0;entryY=0.5;entryDx=0;entryDy=0;" parent="1" source="48" target="rlsw4G8Oqg-HQcDgr6ex-151" edge="1">
          <mxGeometry x="-183" y="262.5" width="100" height="100" as="geometry">
            <mxPoint x="1057" y="612.5" as="sourcePoint" />
            <mxPoint x="-83" y="262.5" as="targetPoint" />
            <Array as="points">
              <mxPoint x="1037" y="672.5" />
            </Array>
          </mxGeometry>
        </mxCell>
        <mxCell id="rlsw4G8Oqg-HQcDgr6ex-155" value="" style="edgeStyle=elbowEdgeStyle;elbow=horizontal;strokeWidth=2;rounded=0;entryX=0;entryY=0.5;entryDx=0;entryDy=0;" parent="1" source="48" target="rlsw4G8Oqg-HQcDgr6ex-152" edge="1">
          <mxGeometry x="-183" y="262.5" width="100" height="100" as="geometry">
            <mxPoint x="1057" y="612.5" as="sourcePoint" />
            <mxPoint x="-83" y="262.5" as="targetPoint" />
            <Array as="points">
              <mxPoint x="1037" y="702.5" />
            </Array>
          </mxGeometry>
        </mxCell>
        <mxCell id="rlsw4G8Oqg-HQcDgr6ex-157" value="load" style="rounded=1;fillColor=#60a917;gradientColor=none;strokeColor=#2D7600;fontColor=#ffffff;fontStyle=1;fontFamily=Tahoma;fontSize=14;opacity=40;" parent="1" vertex="1">
          <mxGeometry x="1057" y="725" width="130" height="44.5" as="geometry" />
        </mxCell>
        <mxCell id="rlsw4G8Oqg-HQcDgr6ex-158" value="" style="edgeStyle=elbowEdgeStyle;elbow=horizontal;strokeWidth=2;rounded=0;" parent="1" source="48" target="rlsw4G8Oqg-HQcDgr6ex-157" edge="1">
          <mxGeometry x="-176" y="272.5" width="100" height="100" as="geometry">
            <mxPoint x="1054.0000000000002" y="612.5" as="sourcePoint" />
            <mxPoint x="1054" y="964" as="targetPoint" />
            <Array as="points">
              <mxPoint x="1037" y="904" />
              <mxPoint x="1044" y="762.5" />
            </Array>
          </mxGeometry>
        </mxCell>
        <mxCell id="rlsw4G8Oqg-HQcDgr6ex-159" value="graph" style="rounded=1;fillColor=#60a917;gradientColor=none;strokeColor=#2D7600;fontColor=#ffffff;fontStyle=1;fontFamily=Tahoma;fontSize=14;verticalAlign=middle;opacity=40;" parent="1" vertex="1">
          <mxGeometry x="1057" y="784" width="130" height="40" as="geometry" />
        </mxCell>
        <mxCell id="rlsw4G8Oqg-HQcDgr6ex-160" value="" style="edgeStyle=elbowEdgeStyle;elbow=horizontal;strokeWidth=2;rounded=0;exitX=0;exitY=0.5;exitDx=0;exitDy=0;" parent="1" source="48" target="rlsw4G8Oqg-HQcDgr6ex-159" edge="1">
          <mxGeometry x="-176" y="351.75" width="100" height="100" as="geometry">
            <mxPoint x="1057" y="612.5" as="sourcePoint" />
            <mxPoint x="1054" y="1043.25" as="targetPoint" />
            <Array as="points">
              <mxPoint x="1037" y="983.25" />
              <mxPoint x="1044" y="841.75" />
            </Array>
          </mxGeometry>
        </mxCell>
        <mxCell id="rlsw4G8Oqg-HQcDgr6ex-161" value="MCDA" style="rounded=1;fillColor=#999999;gradientColor=none;strokeColor=none;fontColor=#FFFFFF;fontStyle=1;fontFamily=Tahoma;fontSize=14" parent="1" vertex="1">
          <mxGeometry x="1472" y="538.5" width="130" height="60" as="geometry" />
        </mxCell>
        <mxCell id="rlsw4G8Oqg-HQcDgr6ex-162" value="__init__.py" style="rounded=1;fillColor=#60a917;gradientColor=none;strokeColor=#2D7600;fontColor=#ffffff;fontStyle=1;fontFamily=Tahoma;fontSize=14;opacity=40;" parent="1" vertex="1">
          <mxGeometry x="1472" y="613.5" width="130" height="44.5" as="geometry" />
        </mxCell>
        <mxCell id="rlsw4G8Oqg-HQcDgr6ex-163" value="model_1.py" style="rounded=1;fillColor=#60a917;gradientColor=none;strokeColor=#2D7600;fontColor=#ffffff;fontStyle=1;fontFamily=Tahoma;fontSize=14;opacity=40;" parent="1" vertex="1">
          <mxGeometry x="1472" y="670" width="130" height="44" as="geometry" />
        </mxCell>
        <mxCell id="rlsw4G8Oqg-HQcDgr6ex-164" value="" style="edgeStyle=elbowEdgeStyle;elbow=horizontal;strokeWidth=2;rounded=0;entryX=0;entryY=0.5;entryDx=0;entryDy=0;" parent="1" source="rlsw4G8Oqg-HQcDgr6ex-161" target="rlsw4G8Oqg-HQcDgr6ex-162" edge="1">
          <mxGeometry x="232" y="262.5" width="100" height="100" as="geometry">
            <mxPoint x="1472" y="612.5" as="sourcePoint" />
            <mxPoint x="332" y="262.5" as="targetPoint" />
            <Array as="points">
              <mxPoint x="1452" y="672.5" />
            </Array>
          </mxGeometry>
        </mxCell>
        <mxCell id="rlsw4G8Oqg-HQcDgr6ex-165" value="" style="edgeStyle=elbowEdgeStyle;elbow=horizontal;strokeWidth=2;rounded=0;entryX=0;entryY=0.5;entryDx=0;entryDy=0;" parent="1" source="rlsw4G8Oqg-HQcDgr6ex-161" target="rlsw4G8Oqg-HQcDgr6ex-163" edge="1">
          <mxGeometry x="232" y="262.5" width="100" height="100" as="geometry">
            <mxPoint x="1472" y="612.5" as="sourcePoint" />
            <mxPoint x="332" y="262.5" as="targetPoint" />
            <Array as="points">
              <mxPoint x="1452" y="702.5" />
            </Array>
          </mxGeometry>
        </mxCell>
        <mxCell id="rlsw4G8Oqg-HQcDgr6ex-166" value="criteria.py" style="rounded=1;fillColor=#60a917;gradientColor=none;strokeColor=#2D7600;fontColor=#ffffff;fontStyle=1;fontFamily=Tahoma;fontSize=14;opacity=40;" parent="1" vertex="1">
          <mxGeometry x="1472" y="725" width="130" height="44.5" as="geometry" />
        </mxCell>
        <mxCell id="rlsw4G8Oqg-HQcDgr6ex-167" value="" style="edgeStyle=elbowEdgeStyle;elbow=horizontal;strokeWidth=2;rounded=0;" parent="1" source="rlsw4G8Oqg-HQcDgr6ex-161" target="rlsw4G8Oqg-HQcDgr6ex-166" edge="1">
          <mxGeometry x="239" y="272.5" width="100" height="100" as="geometry">
            <mxPoint x="1469.0000000000002" y="612.5" as="sourcePoint" />
            <mxPoint x="1469" y="964" as="targetPoint" />
            <Array as="points">
              <mxPoint x="1452" y="904" />
              <mxPoint x="1459" y="762.5" />
            </Array>
          </mxGeometry>
        </mxCell>
        <mxCell id="rlsw4G8Oqg-HQcDgr6ex-170" value="alternative.py" style="rounded=1;fillColor=#60a917;gradientColor=none;strokeColor=#2D7600;fontColor=#ffffff;fontStyle=1;fontFamily=Tahoma;fontSize=14;opacity=40;" parent="1" vertex="1">
          <mxGeometry x="1200" y="539.5" width="110" height="44" as="geometry" />
        </mxCell>
        <mxCell id="rlsw4G8Oqg-HQcDgr6ex-171" value="" style="edgeStyle=elbowEdgeStyle;elbow=vertical;strokeWidth=2;rounded=0;entryX=0.5;entryY=0;entryDx=0;entryDy=0;exitX=0.5;exitY=1;exitDx=0;exitDy=0;" parent="1" source="rlsw4G8Oqg-HQcDgr6ex-144" target="rlsw4G8Oqg-HQcDgr6ex-170" edge="1">
          <mxGeometry x="-273" y="146" width="100" height="100" as="geometry">
            <mxPoint x="1207" y="470" as="sourcePoint" />
            <mxPoint x="1375" y="548.5" as="targetPoint" />
          </mxGeometry>
        </mxCell>
        <mxCell id="uvInX66vzQBQbFuDcTHx-132" value="" style="group" parent="1" vertex="1" connectable="0">
          <mxGeometry x="-40" y="150" width="169.75" height="40" as="geometry" />
        </mxCell>
        <mxCell id="111" value="" style="fillColor=#60a917;strokeColor=#2D7600;opacity=40;fontColor=#ffffff;fontSize=14;fontFamily=Tahoma;rounded=1;fontStyle=1;" parent="uvInX66vzQBQbFuDcTHx-132" vertex="1">
          <mxGeometry width="169.75" height="40" as="geometry" />
        </mxCell>
        <mxCell id="uvInX66vzQBQbFuDcTHx-123" value="Terminado" style="text;html=1;strokeColor=none;fillColor=none;align=center;verticalAlign=middle;whiteSpace=wrap;rounded=0;fontFamily=Tahoma;fontStyle=1;fontSize=14;fontColor=#707070;" parent="uvInX66vzQBQbFuDcTHx-132" vertex="1">
          <mxGeometry x="44.54" y="5" width="80.67" height="30" as="geometry" />
        </mxCell>
        <mxCell id="uvInX66vzQBQbFuDcTHx-133" value="" style="group" parent="1" vertex="1" connectable="0">
          <mxGeometry x="-40" y="190" width="169.75" height="35.5" as="geometry" />
        </mxCell>
        <mxCell id="110" value="" style="fillColor=#0050ef;strokeColor=#001DBC;opacity=40;fontSize=14;fontFamily=Tahoma;fontColor=#ffffff;rounded=1;fontStyle=1;" parent="uvInX66vzQBQbFuDcTHx-133" vertex="1">
          <mxGeometry width="169.75" height="35.5" as="geometry" />
        </mxCell>
        <mxCell id="uvInX66vzQBQbFuDcTHx-124" value="En desarrollo" style="text;html=1;strokeColor=none;fillColor=none;align=center;verticalAlign=middle;whiteSpace=wrap;rounded=0;fontSize=14;fontFamily=Tahoma;fontColor=#707070;fontStyle=1;" parent="uvInX66vzQBQbFuDcTHx-133" vertex="1">
          <mxGeometry x="34.54" y="2.75" width="100.67" height="30" as="geometry" />
        </mxCell>
        <mxCell id="uvInX66vzQBQbFuDcTHx-134" value="" style="group" parent="1" vertex="1" connectable="0">
          <mxGeometry x="-40" y="225.5" width="170" height="40" as="geometry" />
        </mxCell>
        <mxCell id="123" value="" style="fillColor=#d80073;strokeColor=#A50040;opacity=40;fontSize=14;fontFamily=Tahoma;fontColor=#ffffff;rounded=1;fontStyle=1;" parent="uvInX66vzQBQbFuDcTHx-134" vertex="1">
          <mxGeometry width="170" height="40" as="geometry" />
        </mxCell>
        <mxCell id="uvInX66vzQBQbFuDcTHx-125" value="En corrección" style="text;html=1;strokeColor=none;fillColor=none;align=center;verticalAlign=middle;whiteSpace=wrap;rounded=0;fontSize=14;fontFamily=Tahoma;fontColor=#707070;fontStyle=1;" parent="uvInX66vzQBQbFuDcTHx-134" vertex="1">
          <mxGeometry x="34.81" y="5" width="100.38" height="30" as="geometry" />
        </mxCell>
        <mxCell id="uvInX66vzQBQbFuDcTHx-135" value="" style="group" parent="1" vertex="1" connectable="0">
          <mxGeometry x="-40" y="265.5" width="170" height="40" as="geometry" />
        </mxCell>
        <mxCell id="117" value="" style="fillColor=#e3c800;strokeColor=#B09500;opacity=40;fontSize=14;fontFamily=Tahoma;fontColor=#000000;rounded=1;fontStyle=1;" parent="uvInX66vzQBQbFuDcTHx-135" vertex="1">
          <mxGeometry width="170" height="40" as="geometry" />
        </mxCell>
        <mxCell id="uvInX66vzQBQbFuDcTHx-126" value="Por iniciar" style="text;html=1;strokeColor=none;fillColor=none;align=center;verticalAlign=middle;whiteSpace=wrap;rounded=0;fontSize=14;fontFamily=Tahoma;fontColor=#707070;fontStyle=1;" parent="uvInX66vzQBQbFuDcTHx-135" vertex="1">
          <mxGeometry x="44.81" y="5" width="80.38" height="30" as="geometry" />
        </mxCell>
        <mxCell id="REfYO-LJ0lhWjw0BCXIJ-123" value="extract.py" style="rounded=1;fillColor=#60a917;gradientColor=none;strokeColor=#2D7600;fontColor=#ffffff;fontStyle=1;fontFamily=Tahoma;fontSize=14;opacity=40;" parent="1" vertex="1">
          <mxGeometry x="1330" y="539.5" width="110" height="44" as="geometry" />
        </mxCell>
        <mxCell id="REfYO-LJ0lhWjw0BCXIJ-124" value="" style="edgeStyle=elbowEdgeStyle;elbow=vertical;strokeWidth=2;rounded=0;entryX=0.5;entryY=0;entryDx=0;entryDy=0;exitX=0.5;exitY=1;exitDx=0;exitDy=0;" parent="1" source="rlsw4G8Oqg-HQcDgr6ex-144" target="REfYO-LJ0lhWjw0BCXIJ-123" edge="1">
          <mxGeometry x="-263" y="156" width="100" height="100" as="geometry">
            <mxPoint x="1207" y="470" as="sourcePoint" />
            <mxPoint x="1265" y="549.5" as="targetPoint" />
          </mxGeometry>
        </mxCell>
        <mxCell id="REfYO-LJ0lhWjw0BCXIJ-125" value="cachetools.py" style="rounded=1;fillColor=#60a917;gradientColor=none;strokeColor=#2D7600;fontColor=#ffffff;fontStyle=1;fontFamily=Tahoma;fontSize=14;opacity=40;" parent="1" vertex="1">
          <mxGeometry x="1266" y="598.5" width="110" height="44" as="geometry" />
        </mxCell>
        <mxCell id="REfYO-LJ0lhWjw0BCXIJ-126" value="" style="edgeStyle=elbowEdgeStyle;elbow=vertical;strokeWidth=2;rounded=0;entryX=0.5;entryY=0;entryDx=0;entryDy=0;exitX=0.5;exitY=1;exitDx=0;exitDy=0;" parent="1" source="rlsw4G8Oqg-HQcDgr6ex-144" target="REfYO-LJ0lhWjw0BCXIJ-125" edge="1">
          <mxGeometry x="-253" y="166" width="100" height="100" as="geometry">
            <mxPoint x="1207" y="470" as="sourcePoint" />
            <mxPoint x="1395" y="549.5" as="targetPoint" />
            <Array as="points">
              <mxPoint x="1280" y="500" />
            </Array>
          </mxGeometry>
        </mxCell>
      </root>
    </mxGraphModel>
  </diagram>
  <diagram id="JsGRQVgcNDtJCTUJ-KVd" name="Flujo de información">
    <mxGraphModel dx="-1047" dy="875" grid="1" gridSize="10" guides="1" tooltips="1" connect="1" arrows="1" fold="1" page="1" pageScale="1" pageWidth="827" pageHeight="1169" math="0" shadow="0">
      <root>
        <mxCell id="0" />
        <mxCell id="1" parent="0" />
        <mxCell id="QBrAaWVH6x1PevUZjaPR-1" style="edgeStyle=orthogonalEdgeStyle;rounded=0;orthogonalLoop=1;jettySize=auto;html=1;entryX=0.504;entryY=0.95;entryDx=0;entryDy=0;startArrow=classic;startFill=1;endArrow=none;endFill=0;entryPerimeter=0;" edge="1" parent="1" source="QBrAaWVH6x1PevUZjaPR-28" target="QBrAaWVH6x1PevUZjaPR-26">
          <mxGeometry relative="1" as="geometry" />
        </mxCell>
        <mxCell id="QBrAaWVH6x1PevUZjaPR-2" value="" style="edgeStyle=orthogonalEdgeStyle;rounded=0;orthogonalLoop=1;jettySize=auto;html=1;entryX=0.505;entryY=-0.003;entryDx=0;entryDy=0;entryPerimeter=0;" edge="1" parent="1" source="QBrAaWVH6x1PevUZjaPR-3" target="QBrAaWVH6x1PevUZjaPR-29">
          <mxGeometry relative="1" as="geometry" />
        </mxCell>
        <mxCell id="QBrAaWVH6x1PevUZjaPR-3" value="&lt;b&gt;Primary resources for generation with renewable energy sources&lt;/b&gt;" style="rounded=1;whiteSpace=wrap;html=1;flipV=0;flipH=1;fontFamily=Times New Roman;fontSize=14;align=center;arcSize=50;fontStyle=0;spacingLeft=8;spacingRight=8;" vertex="1" parent="1">
          <mxGeometry x="2727" y="162" width="240" height="41" as="geometry" />
        </mxCell>
        <mxCell id="QBrAaWVH6x1PevUZjaPR-4" style="edgeStyle=orthogonalEdgeStyle;rounded=0;orthogonalLoop=1;jettySize=auto;html=1;entryX=0.504;entryY=-0.015;entryDx=0;entryDy=0;entryPerimeter=0;" edge="1" parent="1" source="QBrAaWVH6x1PevUZjaPR-6" target="QBrAaWVH6x1PevUZjaPR-24">
          <mxGeometry relative="1" as="geometry">
            <Array as="points">
              <mxPoint x="2847" y="375" />
            </Array>
          </mxGeometry>
        </mxCell>
        <mxCell id="QBrAaWVH6x1PevUZjaPR-5" style="edgeStyle=orthogonalEdgeStyle;rounded=0;orthogonalLoop=1;jettySize=auto;html=1;entryX=0.504;entryY=0.994;entryDx=0;entryDy=0;entryPerimeter=0;startArrow=classic;startFill=1;endArrow=none;endFill=0;" edge="1" parent="1" source="QBrAaWVH6x1PevUZjaPR-6" target="QBrAaWVH6x1PevUZjaPR-29">
          <mxGeometry relative="1" as="geometry" />
        </mxCell>
        <mxCell id="QBrAaWVH6x1PevUZjaPR-6" value="&lt;i&gt;&lt;b&gt;3.1&amp;nbsp;&lt;/b&gt;&lt;/i&gt;&lt;b&gt;&lt;i&gt;Theoretical pre-feasibility by resource&lt;/i&gt;&lt;/b&gt;" style="rounded=1;whiteSpace=wrap;html=1;flipV=0;flipH=1;fontFamily=Times New Roman;fontSize=14;align=center;arcSize=5;fontStyle=0;spacingLeft=8;spacingRight=8;" vertex="1" parent="1">
          <mxGeometry x="2727" y="312" width="240" height="40" as="geometry" />
        </mxCell>
        <mxCell id="QBrAaWVH6x1PevUZjaPR-7" style="edgeStyle=orthogonalEdgeStyle;rounded=0;orthogonalLoop=1;jettySize=auto;html=1;entryX=0.504;entryY=-0.02;entryDx=0;entryDy=0;entryPerimeter=0;" edge="1" parent="1" source="QBrAaWVH6x1PevUZjaPR-9" target="QBrAaWVH6x1PevUZjaPR-25">
          <mxGeometry relative="1" as="geometry">
            <Array as="points">
              <mxPoint x="2847" y="469" />
            </Array>
          </mxGeometry>
        </mxCell>
        <mxCell id="QBrAaWVH6x1PevUZjaPR-8" style="edgeStyle=orthogonalEdgeStyle;rounded=0;orthogonalLoop=1;jettySize=auto;html=1;entryX=0.504;entryY=1.004;entryDx=0;entryDy=0;entryPerimeter=0;startArrow=classic;startFill=1;endArrow=none;endFill=0;exitX=0.5;exitY=-0.008;exitDx=0;exitDy=0;exitPerimeter=0;" edge="1" parent="1" source="QBrAaWVH6x1PevUZjaPR-9" target="QBrAaWVH6x1PevUZjaPR-24">
          <mxGeometry relative="1" as="geometry" />
        </mxCell>
        <mxCell id="QBrAaWVH6x1PevUZjaPR-9" value="&lt;i&gt;&lt;b&gt;3.2&amp;nbsp;&lt;/b&gt;&lt;/i&gt;&lt;b&gt;&lt;i&gt;Construction of alternatives&lt;/i&gt;&lt;/b&gt;" style="rounded=1;whiteSpace=wrap;html=1;flipV=0;flipH=1;fontFamily=Times New Roman;fontSize=14;arcSize=5;fontStyle=0;spacingLeft=8;spacingRight=8;strokeWidth=1;" vertex="1" parent="1">
          <mxGeometry x="2727" y="417" width="240" height="32" as="geometry" />
        </mxCell>
        <mxCell id="QBrAaWVH6x1PevUZjaPR-10" style="edgeStyle=orthogonalEdgeStyle;rounded=0;orthogonalLoop=1;jettySize=auto;html=1;entryX=0.504;entryY=-0.014;entryDx=0;entryDy=0;entryPerimeter=0;" edge="1" parent="1" source="QBrAaWVH6x1PevUZjaPR-12" target="QBrAaWVH6x1PevUZjaPR-26">
          <mxGeometry relative="1" as="geometry">
            <mxPoint x="2847" y="570" as="targetPoint" />
          </mxGeometry>
        </mxCell>
        <mxCell id="QBrAaWVH6x1PevUZjaPR-11" style="edgeStyle=orthogonalEdgeStyle;rounded=0;orthogonalLoop=1;jettySize=auto;html=1;entryX=0.504;entryY=0.976;entryDx=0;entryDy=0;entryPerimeter=0;startArrow=classic;startFill=1;endArrow=none;endFill=0;" edge="1" parent="1" source="QBrAaWVH6x1PevUZjaPR-12" target="QBrAaWVH6x1PevUZjaPR-25">
          <mxGeometry relative="1" as="geometry" />
        </mxCell>
        <mxCell id="QBrAaWVH6x1PevUZjaPR-12" value="&lt;i&gt;3.3 Evaluation of indicators&lt;/i&gt;" style="rounded=1;whiteSpace=wrap;html=1;flipV=0;flipH=1;fontFamily=Times New Roman;fontSize=14;arcSize=5;fontStyle=1;spacingLeft=8;spacingRight=8;" vertex="1" parent="1">
          <mxGeometry x="2727" y="517" width="240" height="32" as="geometry" />
        </mxCell>
        <mxCell id="QBrAaWVH6x1PevUZjaPR-13" value="Methodological stages/outputs&amp;nbsp;" style="text;html=1;strokeColor=none;fillColor=none;align=center;verticalAlign=middle;whiteSpace=wrap;rounded=0;fontStyle=5;fontFamily=Times New Roman;fontSize=14;" vertex="1" parent="1">
          <mxGeometry x="2741" y="130" width="210" height="30" as="geometry" />
        </mxCell>
        <mxCell id="QBrAaWVH6x1PevUZjaPR-14" value="Approach/method" style="text;html=1;strokeColor=none;fillColor=none;align=center;verticalAlign=middle;whiteSpace=wrap;rounded=0;fontStyle=5;fontFamily=Times New Roman;fontSize=14;" vertex="1" parent="1">
          <mxGeometry x="3036" y="130" width="160" height="30" as="geometry" />
        </mxCell>
        <mxCell id="QBrAaWVH6x1PevUZjaPR-15" style="edgeStyle=orthogonalEdgeStyle;rounded=0;orthogonalLoop=1;jettySize=auto;html=1;endArrow=none;endFill=0;dashed=1;entryX=1;entryY=0.5;entryDx=0;entryDy=0;exitX=0;exitY=0.5;exitDx=0;exitDy=0;" edge="1" parent="1" source="QBrAaWVH6x1PevUZjaPR-16" target="QBrAaWVH6x1PevUZjaPR-6">
          <mxGeometry relative="1" as="geometry">
            <mxPoint x="3008.5" y="326" as="sourcePoint" />
            <mxPoint x="2981" y="340" as="targetPoint" />
            <Array as="points">
              <mxPoint x="3009" y="330" />
              <mxPoint x="2967" y="330" />
            </Array>
          </mxGeometry>
        </mxCell>
        <mxCell id="QBrAaWVH6x1PevUZjaPR-16" value="&lt;div style=&quot;text-align: justify;&quot;&gt;Characteristic curve analysis by primary resource and specification of minimum viable generation by technology: solar photovoltaic, wind, small hydro and biomass.&lt;br&gt;&lt;/div&gt;" style="whiteSpace=wrap;html=1;rounded=1;align=left;arcSize=5;fontSize=14;fontFamily=Times New Roman;fontStyle=0;spacingLeft=8;spacingRight=8;" vertex="1" parent="1">
          <mxGeometry x="3008.5" y="274.5" width="215" height="105" as="geometry" />
        </mxCell>
        <mxCell id="QBrAaWVH6x1PevUZjaPR-17" style="edgeStyle=orthogonalEdgeStyle;rounded=0;orthogonalLoop=1;jettySize=auto;html=1;dashed=1;endArrow=none;endFill=0;" edge="1" parent="1" source="QBrAaWVH6x1PevUZjaPR-18" target="QBrAaWVH6x1PevUZjaPR-9">
          <mxGeometry relative="1" as="geometry" />
        </mxCell>
        <mxCell id="QBrAaWVH6x1PevUZjaPR-18" value="&lt;div style=&quot;text-align: justify;&quot;&gt;Generation potential per resource. Focus on levels of participation by resource, e.g., high, moderate, low and no participation.&lt;br&gt;&lt;/div&gt;" style="whiteSpace=wrap;html=1;rounded=1;align=left;arcSize=5;fontSize=14;fontFamily=Times New Roman;fontStyle=0;spacingLeft=8;spacingRight=8;" vertex="1" parent="1">
          <mxGeometry x="3008.5" y="387.5" width="215" height="89.5" as="geometry" />
        </mxCell>
        <mxCell id="QBrAaWVH6x1PevUZjaPR-19" value="Ranking of alternatives for primary renewable generation resources" style="rounded=1;whiteSpace=wrap;html=1;flipV=0;flipH=1;fontFamily=Times New Roman;fontSize=14;arcSize=50;fontStyle=1;spacingLeft=8;spacingRight=8;" vertex="1" parent="1">
          <mxGeometry x="2727" y="678" width="240" height="50" as="geometry" />
        </mxCell>
        <mxCell id="QBrAaWVH6x1PevUZjaPR-20" style="edgeStyle=orthogonalEdgeStyle;rounded=0;orthogonalLoop=1;jettySize=auto;html=1;exitX=0;exitY=0.5;exitDx=0;exitDy=0;entryX=1;entryY=0.5;entryDx=0;entryDy=0;endArrow=none;endFill=0;dashed=1;" edge="1" parent="1" source="QBrAaWVH6x1PevUZjaPR-21" target="QBrAaWVH6x1PevUZjaPR-12">
          <mxGeometry relative="1" as="geometry" />
        </mxCell>
        <mxCell id="QBrAaWVH6x1PevUZjaPR-21" value="&lt;div style=&quot;text-align: justify; line-height: 100%;&quot;&gt;&lt;div style=&quot;line-height: 100%;&quot;&gt;&lt;ul style=&quot;line-height: 100%;&quot;&gt;&lt;li&gt;&lt;span style=&quot;background-color: initial;&quot;&gt;Calculation of indicators per alternative.&lt;/span&gt;&lt;/li&gt;&lt;li&gt;Evaluation of alternatives.&lt;/li&gt;&lt;/ul&gt;&lt;/div&gt;&lt;/div&gt;" style="whiteSpace=wrap;html=1;rounded=1;align=left;arcSize=5;fontSize=14;fontFamily=Times New Roman;fontStyle=0;spacingLeft=-20;spacingRight=8;" vertex="1" parent="1">
          <mxGeometry x="3008.5" y="496" width="215" height="73" as="geometry" />
        </mxCell>
        <mxCell id="QBrAaWVH6x1PevUZjaPR-22" style="edgeStyle=orthogonalEdgeStyle;rounded=0;orthogonalLoop=1;jettySize=auto;html=1;endArrow=none;endFill=0;dashed=1;" edge="1" parent="1" source="QBrAaWVH6x1PevUZjaPR-23" target="QBrAaWVH6x1PevUZjaPR-28">
          <mxGeometry relative="1" as="geometry" />
        </mxCell>
        <mxCell id="QBrAaWVH6x1PevUZjaPR-23" value="&lt;div style=&quot;text-align: justify;&quot;&gt;&lt;ul&gt;&lt;li&gt;FAHP on experts’ opinions about the comparison between criteria.&amp;nbsp;&lt;/li&gt;&lt;li&gt;&lt;span style=&quot;background-color: initial;&quot;&gt;TOPSIS classification.&lt;/span&gt;&lt;/li&gt;&lt;/ul&gt;&lt;/div&gt;" style="whiteSpace=wrap;html=1;rounded=1;align=left;arcSize=5;fontSize=14;fontFamily=Times New Roman;fontStyle=0;spacingLeft=-20;spacingRight=8;" vertex="1" parent="1">
          <mxGeometry x="3008.5" y="599" width="215" height="70" as="geometry" />
        </mxCell>
        <mxCell id="QBrAaWVH6x1PevUZjaPR-24" value="Pre-feasible primary resources" style="shape=parallelogram;perimeter=parallelogramPerimeter;whiteSpace=wrap;html=1;fixedSize=1;strokeWidth=1;size=20;fontSize=14;fontFamily=Times New Roman;rounded=1;arcSize=5;fontStyle=0;spacingLeft=8;spacingRight=8;flipV=0;" vertex="1" parent="1">
          <mxGeometry x="2726" y="375" width="240" height="20" as="geometry" />
        </mxCell>
        <mxCell id="QBrAaWVH6x1PevUZjaPR-25" value="Resource alternatives" style="shape=parallelogram;perimeter=parallelogramPerimeter;whiteSpace=wrap;html=1;fixedSize=1;strokeWidth=1;size=20;fontSize=14;fontFamily=Times New Roman;rounded=1;arcSize=5;fontStyle=0;spacingLeft=8;spacingRight=8;flipV=0;" vertex="1" parent="1">
          <mxGeometry x="2726" y="470" width="240" height="20" as="geometry" />
        </mxCell>
        <mxCell id="QBrAaWVH6x1PevUZjaPR-26" value="Alternatives evaluated" style="shape=parallelogram;perimeter=parallelogramPerimeter;whiteSpace=wrap;html=1;fixedSize=1;strokeWidth=1;size=20;fontSize=14;fontFamily=Times New Roman;rounded=1;arcSize=5;fontStyle=0;spacingLeft=8;spacingRight=8;flipV=0;" vertex="1" parent="1">
          <mxGeometry x="2726" y="571" width="240" height="20" as="geometry" />
        </mxCell>
        <mxCell id="QBrAaWVH6x1PevUZjaPR-27" style="edgeStyle=orthogonalEdgeStyle;rounded=0;orthogonalLoop=1;jettySize=auto;html=1;entryX=0.5;entryY=0;entryDx=0;entryDy=0;" edge="1" parent="1" source="QBrAaWVH6x1PevUZjaPR-28" target="QBrAaWVH6x1PevUZjaPR-19">
          <mxGeometry relative="1" as="geometry" />
        </mxCell>
        <mxCell id="QBrAaWVH6x1PevUZjaPR-28" value="&lt;span&gt;3.4 MCDA&lt;/span&gt;" style="rounded=1;whiteSpace=wrap;html=1;flipV=0;flipH=1;fontFamily=Times New Roman;fontSize=14;arcSize=5;fontStyle=3;spacingLeft=8;spacingRight=8;" vertex="1" parent="1">
          <mxGeometry x="2727" y="618" width="240" height="32" as="geometry" />
        </mxCell>
        <mxCell id="QBrAaWVH6x1PevUZjaPR-29" value="Historical primary resource data:&lt;br&gt;&lt;i style=&quot;font-size: 12px;&quot;&gt;Irradiance, wind speed, water flow &lt;br&gt;and biomass residues.&lt;/i&gt;" style="shape=parallelogram;perimeter=parallelogramPerimeter;whiteSpace=wrap;html=1;fixedSize=1;strokeWidth=1;size=20;fontSize=14;fontFamily=Times New Roman;rounded=1;arcSize=5;fontStyle=0;spacingLeft=8;spacingRight=8;flipV=0;" vertex="1" parent="1">
          <mxGeometry x="2726" y="233" width="240" height="52" as="geometry" />
        </mxCell>
      </root>
    </mxGraphModel>
  </diagram>
</mxfile>
